<?xml version="1.0" standalone="no"?>
<!DOCTYPE svg PUBLIC "-//W3C//DTD SVG 20010904//EN"
 "http://www.w3.org/TR/2001/REC-SVG-20010904/DTD/svg10.dtd">
<svg version="1.0" xmlns="http://www.w3.org/2000/svg"
 width="192.000000pt" height="192.000000pt" viewBox="0 0 192.000000 192.000000"
 preserveAspectRatio="xMidYMid meet">
<metadata>
Created by potrace 1.11, written by Peter Selinger 2001-2013
</metadata>
<g transform="translate(0.000000,192.000000) scale(0.100000,-0.100000)"
fill="#000000" stroke="none">
<path d="M885 1780 c-8 -37 -27 -38 -49 -5 -19 29 -36 25 -36 -9 0 -16 -7 -26
-21 -29 -17 -5 -19 -9 -9 -26 7 -13 7 -21 1 -21 -6 0 -15 9 -21 19 -13 25 -13
34 0 26 15 -9 12 11 -4 24 -19 16 -30 -3 -16 -28 16 -30 13 -32 -27 -16 -45
19 -51 14 -24 -21 26 -34 27 -47 1 -39 -36 11 -23 -23 16 -43 l37 -19 -84 -6
c-102 -8 -154 -22 -180 -48 -25 -25 -24 -61 1 -77 12 -7 20 -23 20 -41 0 -16
7 -48 15 -71 8 -23 15 -44 15 -46 0 -2 -20 -12 -45 -23 -53 -23 -63 -42 -46
-85 57 -138 61 -155 42 -168 -52 -37 -51 -86 4 -261 19 -60 35 -118 35 -127 0
-10 -13 -23 -30 -30 -66 -27 -83 -111 -32 -159 21 -19 38 -54 61 -131 18 -58
37 -120 42 -138 l11 -32 77 0 c191 0 881 119 908 157 16 21 16 51 2 222 -7 85
-7 137 -1 144 11 14 15 37 13 85 -2 49 -48 92 -99 92 -50 0 -52 6 -52 124 0
58 -4 96 -12 104 -7 7 -31 12 -54 12 l-42 0 8 38 c5 20 14 81 20 134 15 131 9
143 -71 135 -58 -5 -59 -5 -59 20 0 14 7 40 16 59 28 58 8 75 -111 97 l-60 11
37 9 c37 9 84 47 58 47 -9 0 -8 6 5 20 23 26 15 33 -20 20 -16 -6 -35 -8 -43
-5 -12 5 -12 9 3 25 22 24 12 39 -15 22 -11 -7 -29 -12 -41 -12 -16 0 -19 4
-14 18 4 9 10 28 13 41 4 22 3 22 -19 11 -13 -7 -31 -18 -39 -26 -19 -16 -43
0 -54 34 -10 31 -23 28 -31 -8z m25 -30 c0 -16 -4 -30 -10 -30 -11 0 -14 43
-3 53 11 12 13 8 13 -23z m-74 3 c16 -21 18 -53 4 -53 -10 0 -30 41 -30 61 0
14 12 11 26 -8z m169 -20 c-18 -42 -33 -63 -47 -63 -16 0 1 52 24 78 31 33 40
27 23 -15z m-77 -95 c-13 -22 -13 -22 -16 13 -2 19 3 48 10 65 l12 29 4 -42
c2 -23 -3 -53 -10 -65z m-28 15 c0 -12 -4 -24 -9 -27 -13 -8 -21 19 -20 67 l1
42 13 -30 c8 -16 14 -40 15 -52z m-52 19 c10 -15 11 -22 3 -22 -15 0 -61 46
-61 61 0 16 39 -11 58 -39z m-127 18 c13 -10 20 -20 14 -20 -5 0 14 -14 43
-30 49 -29 62 -40 45 -40 -5 0 -32 14 -62 31 -40 23 -50 33 -40 40 8 5 9 9 3
9 -14 0 -52 29 -38 30 7 0 22 -9 35 -20z m345 5 c-11 -8 -22 -12 -25 -9 -6 6
19 24 34 24 6 -1 1 -7 -9 -15z m-55 -24 c-14 -24 -72 -74 -79 -66 -7 6 68 85
80 85 5 0 4 -9 -1 -19z m-196 -16 c44 -26 75 -55 58 -55 -13 0 -99 55 -107 69
-11 17 2 13 49 -14z m255 5 c0 -13 -58 -42 -73 -37 -7 2 4 14 23 25 39 24 50
27 50 12z m46 -5 c-11 -8 -25 -15 -30 -15 -6 0 -2 7 8 15 11 8 25 15 30 15 6
0 2 -7 -8 -15z m-365 -35 c32 -26 6 -26 -41 0 -34 19 -34 19 -9 20 15 0 37 -9
50 -20z m349 -4 c-33 -18 -129 -33 -115 -17 12 12 77 29 115 30 l25 0 -25 -13z
m-110 -46 c137 -12 220 -33 220 -56 0 -14 -10 -15 -62 -10 -183 17 -395 18
-498 1 -199 -31 -182 -31 -178 -4 2 13 16 31 34 41 59 34 270 46 484 28z m168
-86 c30 -6 32 -9 32 -50 0 -27 -5 -46 -12 -48 -183 -54 -292 -69 -556 -78
l-82 -3 -15 40 c-9 22 -16 58 -18 80 l-2 40 95 17 c77 14 136 17 310 13 118
-2 230 -7 248 -11z m142 -104 c12 -7 9 -23 -20 -107 -43 -125 -60 -166 -66
-160 -11 10 -63 242 -56 248 7 7 84 26 112 28 8 0 22 -3 30 -9z m-170 -24 c0
-10 -63 -183 -74 -204 -12 -23 -14 -20 -45 55 -18 43 -35 85 -37 93 -4 11 13
20 68 36 82 24 88 26 88 20z m45 -156 c15 -61 26 -112 24 -114 -5 -4 -132 14
-138 20 -6 6 73 213 80 208 4 -2 19 -53 34 -114z m140 63 c-3 -32 -11 -86 -17
-120 -10 -60 -12 -63 -39 -63 -16 0 -29 3 -29 8 0 10 84 232 88 232 2 0 1 -26
-3 -57z m-385 32 c0 -25 -32 -149 -41 -159 -8 -9 -51 54 -80 118 l-18 41 37 6
c72 12 102 10 102 -6z m-166 -22 c-15 -71 -35 -133 -42 -133 -5 0 -19 19 -32
43 -13 23 -33 55 -44 70 -27 36 -12 47 67 47 l57 0 -6 -27z m-167 -63 c-9
-119 -12 -120 -85 -40 -52 57 -73 89 -59 90 1 0 20 7 42 15 22 8 55 14 74 15
l34 0 -6 -80z m408 -23 c15 -37 26 -70 22 -73 -3 -3 -31 -2 -62 1 l-57 8 6 32
c4 19 14 57 22 85 18 61 23 58 69 -53z m-198 -67 c-34 -3 -64 -4 -66 -3 -3 2
11 60 36 143 2 8 22 -16 48 -60 l43 -75 -61 -5z m-121 47 c14 -27 22 -52 18
-57 -10 -8 -105 -33 -110 -28 -1 2 1 21 6 43 4 22 11 62 15 90 l7 49 19 -24
c10 -14 30 -47 45 -73z m-147 -52 c30 -42 31 -44 12 -55 -36 -19 -46 -10 -73
64 -16 40 -28 77 -28 81 0 13 54 -42 89 -90z m535 -26 c121 -23 179 -27 238
-18 69 11 88 2 88 -41 0 -27 0 -27 -40 -17 -30 8 -51 8 -82 -2 -24 -7 -54 -12
-68 -11 -112 7 -149 4 -169 -14 -19 -17 -22 -18 -61 -2 -49 20 -93 11 -144
-27 -29 -22 -34 -24 -56 -11 -48 26 -125 12 -159 -30 -9 -11 -19 -13 -37 -5
-37 13 -77 11 -100 -6 -28 -21 -31 -19 -38 21 -5 25 -3 43 8 59 29 44 143 87
316 119 37 7 244 -3 304 -15z m311 -99 c8 -7 15 -20 15 -29 0 -13 -9 -15 -48
-13 -27 2 -68 -2 -93 -9 -24 -6 -67 -11 -95 -10 -27 1 -70 -5 -95 -13 -24 -9
-73 -18 -109 -19 -36 -2 -83 -12 -105 -22 -24 -10 -60 -17 -91 -16 -30 2 -68
-5 -90 -15 -22 -9 -58 -16 -81 -15 -23 1 -58 -5 -78 -13 -35 -15 -36 -15 -45
10 -13 33 -13 34 7 56 18 21 92 25 110 7 9 -9 21 -4 47 19 48 42 87 49 139 23
l41 -21 32 31 c40 39 99 49 142 24 28 -17 30 -17 58 4 41 30 92 36 136 18 34
-14 40 -14 75 4 41 22 102 21 128 -1z m15 -88 c0 -45 -73 -73 -135 -52 -33 11
-39 10 -61 -11 -28 -26 -136 -40 -148 -20 -5 8 -17 4 -37 -13 -17 -14 -47 -31
-69 -37 -34 -10 -44 -9 -80 10 l-42 22 -34 -31 c-37 -32 -80 -39 -129 -20 -23
9 -32 6 -57 -15 -56 -47 -96 -43 -112 11 -6 19 -1 22 35 28 23 4 54 13 70 21
15 8 55 15 88 15 33 0 72 5 88 12 15 6 62 14 103 18 41 4 89 13 105 20 17 7
64 14 105 15 45 1 87 7 105 17 18 9 46 13 70 11 22 -2 58 0 80 5 56 14 55 14
55 -6z m-88 -72 c40 0 33 -4 -91 -55 -214 -87 -365 -124 -507 -125 -33 0 -87
-5 -119 -11 -61 -11 -75 -5 -75 34 0 12 8 17 29 17 17 0 42 11 59 25 26 22 33
23 67 14 48 -14 92 -5 129 24 27 22 31 23 59 9 38 -19 110 -11 147 17 23 17
38 20 73 15 51 -7 107 8 132 36 13 15 22 17 36 10 10 -6 37 -10 61 -10z m83
10 c-27 -12 -43 -12 -25 0 8 5 22 9 30 9 10 0 8 -3 -5 -9z m124 -29 c21 -21
35 -75 29 -108 -2 -12 -15 -20 -38 -23 -34 -5 -35 -6 -32 -46 3 -54 -19 -76
-42 -42 -8 13 -18 35 -21 50 -10 39 -29 52 -54 38 -27 -14 -27 -44 0 -114 13
-34 19 -65 15 -80 -11 -45 -66 -57 -81 -19 -3 9 -8 43 -12 76 -6 55 -28 97
-50 97 -34 -1 -44 -41 -30 -113 8 -36 7 -38 -15 -35 -18 2 -27 14 -39 51 -27
81 -52 87 -90 22 -26 -43 -51 -45 -81 -5 -24 33 -55 39 -65 14 -3 -10 2 -51
12 -92 l19 -75 -23 -18 c-17 -14 -27 -16 -42 -9 -15 9 -19 22 -19 65 0 42 -5
60 -20 75 -11 11 -24 20 -29 20 -20 0 -42 -33 -37 -55 7 -26 -19 -65 -43 -65
-24 0 -39 19 -47 58 -8 42 -29 59 -49 42 -12 -10 -15 -29 -13 -74 2 -49 0 -61
-12 -61 -11 0 -17 15 -21 53 -11 87 -45 107 -80 47 -26 -44 -45 -44 -66 0 -39
83 25 129 202 145 303 28 276 22 630 149 155 55 213 63 244 32z m-119 -179
c12 -45 41 -75 67 -70 14 2 19 14 21 56 3 44 6 53 20 50 14 -3 18 -17 20 -69
l3 -65 -66 -13 c-36 -7 -67 -12 -68 -10 -1 2 -10 27 -20 55 -18 54 -21 86 -10
97 14 14 23 6 33 -31z m-150 -27 c7 -8 13 -41 14 -73 l1 -57 -153 -26 c-107
-18 -155 -23 -157 -15 -20 61 -34 120 -29 127 9 16 26 10 46 -17 28 -35 75
-30 98 11 23 41 42 38 60 -11 20 -55 39 -76 64 -72 19 3 21 10 21 68 1 36 2
68 3 73 3 12 19 8 32 -8z m-422 -97 c7 -7 12 -33 12 -59 0 -54 1 -54 -120 -65
l-76 -6 -2 66 c-2 74 11 86 29 26 16 -54 39 -73 72 -61 29 11 47 39 47 74 0
36 16 47 38 25z m712 -35 c0 -26 -12 -30 -215 -72 -152 -32 -391 -71 -580 -96
-66 -9 -139 -18 -162 -22 -39 -5 -43 -3 -53 22 -12 32 -6 45 23 45 12 0 79 7
149 17 109 14 132 15 167 3 40 -13 43 -12 69 13 22 21 48 29 147 46 66 11 135
23 152 27 23 4 41 1 59 -11 33 -21 71 -13 86 20 8 19 23 27 67 35 31 6 61 13
66 14 14 4 25 -14 25 -41z m-976 11 c3 -9 6 -33 6 -54 0 -21 5 -42 12 -46 14
-9 -15 -22 -49 -23 -33 -1 -45 63 -20 107 21 35 41 41 51 16z m978 -78 c10
-51 -3 -87 -36 -101 -97 -40 -798 -152 -900 -143 -37 3 -39 5 -51 51 -9 35 -9
49 -1 52 6 1 90 13 186 25 224 28 490 73 650 109 157 36 147 35 152 7z"/>
<path d="M795 1431 c-8 -15 3 -31 21 -31 9 0 14 7 12 17 -4 20 -24 28 -33 14z"/>
<path d="M865 1431 c-8 -15 3 -31 21 -31 9 0 14 7 12 17 -4 20 -24 28 -33 14z"/>
<path d="M937 1434 c-14 -15 -6 -34 14 -34 14 0 19 5 17 17 -3 18 -20 27 -31
17z"/>
<path d="M1000 1420 c0 -15 5 -20 18 -18 9 2 17 10 17 18 0 8 -8 16 -17 18
-13 2 -18 -3 -18 -18z"/>
<path d="M1066 1431 c-3 -5 1 -15 10 -22 13 -10 17 -10 24 1 5 8 6 18 4 22 -7
11 -31 10 -38 -1z"/>
<path d="M1132 1423 c2 -10 10 -18 18 -18 8 0 16 8 18 18 2 12 -3 17 -18 17
-15 0 -20 -5 -18 -17z"/>
<path d="M597 1424 c-14 -15 -6 -34 14 -34 14 0 19 5 17 17 -3 18 -20 27 -31
17z"/>
<path d="M664 1419 c-3 -6 -2 -15 4 -21 13 -13 32 -2 32 18 0 16 -26 19 -36 3z"/>
<path d="M730 1416 c0 -8 4 -17 8 -20 13 -8 35 11 28 23 -10 16 -36 14 -36 -3z"/>
<path d="M524 1399 c-8 -14 11 -33 25 -25 6 4 11 14 11 22 0 16 -26 19 -36 3z"/>
<path d="M1370 1040 c0 -5 5 -10 10 -10 6 0 10 5 10 10 0 6 -4 10 -10 10 -5 0
-10 -4 -10 -10z"/>
<path d="M1195 1031 c-7 -12 12 -24 25 -16 11 7 4 25 -10 25 -5 0 -11 -4 -15
-9z"/>
<path d="M1014 1016 c-8 -22 3 -33 18 -18 9 9 9 15 0 24 -9 9 -13 7 -18 -6z"/>
<path d="M792 993 c4 -21 33 -25 33 -3 0 8 -8 16 -18 18 -14 3 -18 -1 -15 -15z"/>
<path d="M577 964 c-9 -10 2 -24 19 -24 8 0 14 7 14 15 0 15 -21 21 -33 9z"/>
<path d="M1226 823 c-11 -11 -6 -23 9 -23 8 0 15 4 15 9 0 13 -16 22 -24 14z"/>
<path d="M1044 769 c-3 -6 -2 -15 2 -19 12 -12 38 5 30 19 -9 14 -23 14 -32 0z"/>
<path d="M843 743 c-18 -6 -16 -33 1 -33 19 0 31 19 20 30 -5 4 -15 5 -21 3z"/>
<path d="M632 698 c7 -19 38 -22 38 -4 0 10 -9 16 -21 16 -12 0 -19 -5 -17
-12z"/>
</g>
</svg>
